<svg width="350" height="486" viewBox="0 0 350 486" fill="none" xmlns="http://www.w3.org/2000/svg">
<path d="M21 10C39.5192 38.4608 32.8469 50.7263 38.7435 73.6161C45.7284 69.6253 52.3248 62.2806 57.9617 64.4713C63.5986 66.662 77.3031 54.9611 80.2359 60.6271C93.7669 57.4418 100.83 59.2751 112.733 67.2682C94.9591 39.1647 97 34 101.376 0C118.65 9.15654 129.09 18.7982 132.5 69C134.998 76.1775 147.182 69 147.182 87.6722C149.619 95.9809 160.453 100.821 153.092 111.38C155.03 121.071 165.276 123.493 156.837 139.816C160.372 150.343 160.229 157.096 157.628 167.723C158.069 169.622 157.968 170.941 156.635 171.555C151.457 173.941 169.259 173.865 155.056 189.239C159.329 196.118 157.889 199.456 153.092 205.109C157.151 204.141 159.633 214.966 155.433 228.687C158.933 230.67 158.897 230.111 162.699 234.84C171.737 245.328 182.549 249.064 208 253.406C215.5 249.5 225.333 258.596 225.333 255.856C234.115 253.642 240.954 253.882 247 258.582C261.589 256.903 271.742 256.008 282.128 256.577C284.158 256.262 286.308 256.323 289.116 257.179C292.262 257.546 295.517 258.053 299 258.716C307.564 257.531 302.53 265.952 315.5 268C321.24 268.906 323.992 272.26 325.558 276C327.983 281.787 327.569 288.5 331 288.5C339.341 294.01 338.022 307.83 335.664 319C344.089 328.486 344.254 337.881 341 352C346.413 363.206 351.905 376.167 346.5 388.065C349.767 401.777 350.683 398.042 344.5 410.5C346.94 420.965 338.669 432.205 331 445.5C331.788 459.035 344.518 456.674 338.5 468.708C327.336 468.708 331.253 475.767 320 468.708C298.718 468.708 311.629 461.684 309.463 443.957C309.146 442.533 308.825 440.893 308.5 439C308.654 444.505 292.927 408.324 289.5 417.554C287.621 425.352 282.714 459.846 282.044 469.978C282.012 471.076 281.998 471.934 282 472.5C281.225 479.005 274.931 474.911 273.634 472.777L271.996 472.935C266.365 474.388 272.851 478.795 265.25 475.349H247L249.5 445.423C246.024 431.552 245.497 425.339 243 413.683L238.711 416.389C238.14 417.166 238.406 417.734 238.832 418.096C240.843 418.732 239.586 418.738 238.832 418.096C238.366 417.949 237.726 417.768 236.864 417.554C215.954 425.149 215.471 425.086 201.367 419.934C200.682 419.95 199.997 419.964 199.312 419.976C187.213 420.6 180.399 427.519 160.453 418.809C151.896 421.315 144.278 424.34 134.5 419.934C130.364 420.668 125.257 421.16 120.035 421.097C112.406 422.106 104.149 423.282 100.155 422.752C99.8704 424.26 99.6396 425.781 99.4569 427.302C99.3027 435.762 103.057 449.361 101.376 458.119C99.4299 469.55 105.319 468.255 101.376 468.708C97.4324 469.162 90.0638 470.758 78.7945 468.708C77.9052 464.312 74.6539 461.748 73.5095 458.119C71.3637 456.627 72.601 453.073 71.343 445.423C66.7169 436.871 62.4203 430.092 57.9617 422.752C56.6909 448.119 51.8891 453.82 51.8891 479.429C46.3468 482.861 36.2971 487.388 28.1737 483.51C28.1737 483.51 9.57835 456.758 18.2287 453.82C15.7545 444.931 5.48419 434.087 11.1528 422.752C2.14145 412.76 0.868196 388.706 7.03354 388.065C2.83914 386.024 -1.9654 365.62 7.03354 358.808C8.36415 340.9 7.95098 328.37 8.92822 318.429C9.00006 316.627 9.19946 314.958 9.57835 313.477C10.711 306.823 12.8715 301.289 17.2743 295.793C18.0454 288.153 14.4304 277.522 21 268C17.2743 259.669 14.8747 258.827 21 246.824C14.9597 238.189 7.03354 228.687 11.6591 210.55C6.49927 202.322 -2.33507 194.573 7.95964 184.251C-0.835106 170.205 -0.674691 159.841 5.48419 151.605C5.30569 141.823 -7.73085 137.095 7.03354 121.813C-1.64133 111.216 -1.02597 101.909 12.799 94.4735C3.57831 68.8226 -2.5 60.6271 2.84251 41C6.71624 27.2694 11.3302 20.804 21 10Z" fill="#F1F6FE"/>
<path d="M78 418.5C72.3 423.036 68.136 423.69 59.5 422.5L67.5 438L72.5 455L78 464.5H97.5L101 455C102.801 443.509 103.334 436.748 101 422.5C88.7769 426.294 90.4046 427.11 78 418.5Z" fill="#E8EEF8" stroke="#E8EEF8"/>
<path d="M26 484.5C23 484 21.5317 477.572 20 470C34.0919 470.684 42.2525 468.689 52.5 462C53.5997 469.054 51.9293 476.191 51 480C50.0707 483.809 29 485 26 484.5Z" fill="#C0D2EE" stroke="#C0D2EE"/>
<path d="M77.4392 469.13C74.607 464.147 72.5414 459.613 73.088 454C86.7859 456.277 93.7317 457.559 102.735 454C103.267 459.185 103.01 461.928 101.85 466.608C91.4955 470.158 86.1794 473.032 77.4392 469.13Z" fill="#C0D2EE" stroke="#C0D2EE"/>
<path d="M282.896 462C272.692 466.284 259.28 465.56 248.487 462C246.215 467.479 246.816 471.353 248.487 476.135C253.058 478.562 266.044 480 266.044 480C270.862 478.958 278.055 479.083 280.102 476.135C283.252 471.159 283.127 467.158 282.896 462Z" fill="#C0D2EE" stroke="#C0D2EE"/>
<path d="M26.4425 163.304C23.5788 152.944 25.3033 143.616 28.7756 130.47C36.3276 131.991 39.4837 127.505 43.9409 122.774C48.3224 120.074 54.6077 120.567 57.9401 113.539C66.6896 118.157 73.3298 113.631 80.1054 113.539C83.2748 113.496 85.9057 114.73 88.885 115.318C92.8448 115.574 96.2205 114.625 101.687 112C105.305 119.354 110.605 118.689 116.27 122.774L130.27 130.47C133.087 136.445 134.891 141.146 135 145.348C130.029 148.937 127.17 153.279 126.186 160.226C120.389 160.84 115.401 161.554 110.973 162.381C108.953 163.319 107.049 164.446 105.188 165.63C102.227 165.36 98.3377 165.702 94.096 166.871C90.6821 168.102 87.4705 169.473 84.1888 171C73.5143 167.863 63.9106 164.65 52.1074 167.504C45.0334 166.228 35.5561 165.763 26.4425 163.304Z" fill="white"/>
<path d="M57.9401 113.539C54.6077 120.567 48.3224 120.074 43.9409 122.774M57.9401 113.539C55.9028 121.137 52.8229 122.427 43.9409 122.774M57.9401 113.539C66.6896 118.157 73.3298 113.631 80.1054 113.539M101.687 112C91.1881 119.183 86.8752 113.448 80.1054 113.539M101.687 112C92.7982 116.269 89.4382 116.104 80.1054 113.539M101.687 112C105.305 119.354 110.605 118.689 116.27 122.774M130.27 130.47C120.673 132.502 121.935 126.859 116.27 122.774M130.27 130.47L116.27 122.774M130.27 130.47C133.087 136.445 134.891 141.146 135 145.348C130.029 148.937 127.17 153.279 126.186 160.226M126.186 160.226C105.78 162.388 95.3924 165.786 84.1888 171M126.186 160.226C117.252 158.78 111.016 161.924 105.188 165.63C100.004 165.158 91.9741 166.558 84.1888 171M26.4425 163.304C23.5788 152.944 25.3033 143.616 28.7756 130.47C36.3276 131.991 39.4837 127.505 43.9409 122.774M26.4425 163.304C35.5561 165.763 45.0334 166.228 52.1074 167.504M26.4425 163.304C36.7218 163.622 43.651 163.566 52.1074 167.504M52.1074 167.504C63.9106 164.65 73.5143 167.863 84.1888 171" stroke="white"/>
<circle cx="51" cy="134" r="9" fill="#C0D2EE"/>
<circle cx="100" cy="132" r="9" fill="#C0D2EE"/>
<ellipse cx="102.828" cy="129.089" rx="2" ry="2.5" transform="rotate(-23.4047 102.828 129.089)" fill="white"/>
<ellipse cx="102.828" cy="129.089" rx="2" ry="2.5" transform="rotate(-23.4047 102.828 129.089)" fill="white"/>
<ellipse cx="53.8285" cy="131.089" rx="2" ry="2.5" transform="rotate(-23.4047 53.8285 131.089)" fill="white"/>
<ellipse cx="53.8285" cy="131.089" rx="2" ry="2.5" transform="rotate(-23.4047 53.8285 131.089)" fill="white"/>
<path d="M83.9841 135.729C77.8603 129.732 67.8279 132.061 65.7654 135.133C63.7028 138.205 63.137 142.894 65.7659 151.243C68.1877 154.526 70.62 156.991 75.4437 159C80.7497 157.833 82.8937 155.42 84.5528 151.243C86.7471 145.719 86.3573 142.849 83.9841 135.729Z" fill="#F1F6FE"/>
<path d="M80.4998 141C81.4918 139.022 81.7761 137.915 80.4998 135.938C78.3903 135.228 76.1481 136.605 74.4498 136.5C72.4787 136.378 71.0494 134.9 68.3998 135.938C66.998 137.885 67.2017 138.686 68.3998 139.875C70.487 142.193 72.0989 143.339 73.8998 143.812C77.6333 143.542 78.6582 142.494 80.4998 141Z" fill="#C0D2EE" stroke="#C0D2EE"/>
<path d="M74.4502 144.375C74.1221 147.563 74.3102 149.271 75.0002 152.25M75.0002 152.25C71.9556 153.619 69.6093 153.134 66.2002 151.688M75.0002 152.25C78.7514 153.372 80.7868 152.819 84.3502 151.688" stroke="#C0D2EE" stroke-linecap="round"/>
<path d="M321 415C311 415 306.406 423.217 293 416.5C298.121 428.803 304.475 427.453 307.5 439C310.525 450.547 304.794 457.658 309 465.5L339.5 460.5C339.9 461.686 341.874 457.17 341.5 441C343.675 431.265 347 414 343.5 412C340 410 329.663 419.179 321 415Z" fill="#E8EEF8" stroke="#E8EEF8"/>
<path d="M339.922 457.131C337.843 457.131 308.356 458.092 307.5 457.089C306.644 456.086 306.708 467.774 309.418 470.695C312.128 473.616 330.999 474.727 337.843 468.291C340.496 463.784 342 457.131 339.922 457.131Z" fill="#C0D2EE" stroke="#C0D2EE"/>
<ellipse cx="102.35" cy="148.946" rx="10.9971" ry="5.62129" transform="rotate(-26.5651 102.35 148.946)" fill="url(#paint0_radial_132_177)"/>
<ellipse cx="47.2852" cy="149.716" rx="12.5" ry="4.71358" transform="rotate(14.6181 47.2852 149.716)" fill="url(#paint1_radial_132_177)"/>
<path d="M20.0002 23C9.25807 46.571 9.77193 61.2613 17.5002 89C21.5287 80.5427 25.2987 78.6593 34 76.5C31.5779 54.1315 28.0509 41.2863 20.0002 23Z" fill="#E8EEF8"/>
<path d="M129 70.5C124.74 67.2209 121.334 69.0196 116.5 70.5C103.679 43.8436 105.711 31.4386 109.5 14C122.018 36.8818 125.171 46.0464 129 70.5Z" fill="#E8EEF8"/>
<path d="M20.0002 23C9.25807 46.571 9.77193 61.2613 17.5002 89C21.5287 80.5427 25.2987 78.6593 34 76.5C31.5779 54.1315 28.0509 41.2863 20.0002 23Z" stroke="#E8EEF8"/>
<path d="M129 70.5C124.74 67.2209 121.334 69.0196 116.5 70.5C103.679 43.8436 105.711 31.4386 109.5 14C122.018 36.8818 125.171 46.0464 129 70.5Z" stroke="#E8EEF8"/>
<defs>
<radialGradient id="paint0_radial_132_177" cx="0" cy="0" r="1" gradientUnits="userSpaceOnUse" gradientTransform="translate(102.35 148.946) rotate(90) scale(5.62129 10.9971)">
<stop stop-color="#F5B9D2" stop-opacity="0.5"/>
<stop offset="1" stop-color="#F5B9D2" stop-opacity="0"/>
</radialGradient>
<radialGradient id="paint1_radial_132_177" cx="0" cy="0" r="1" gradientUnits="userSpaceOnUse" gradientTransform="translate(47.2852 149.716) rotate(90) scale(4.71358 12.5)">
<stop stop-color="#F5B9D2" stop-opacity="0.5"/>
<stop offset="1" stop-color="#F5B9D2" stop-opacity="0"/>
</radialGradient>
</defs>
</svg>
