<svg width="115" height="25" viewBox="0 0 115 25" fill="none" xmlns="http://www.w3.org/2000/svg">
<path d="M11.2159 6.54545V10.1818H0.704545V6.54545H11.2159ZM3.09091 2.36364H7.93182V18.6364C7.93182 19.0833 8 19.4318 8.13636 19.6818C8.27273 19.9242 8.46212 20.0947 8.70455 20.1932C8.95455 20.2917 9.24242 20.3409 9.56818 20.3409C9.79545 20.3409 10.0227 20.322 10.25 20.2841C10.4773 20.2386 10.6515 20.2045 10.7727 20.1818L11.5341 23.7841C11.2917 23.8598 10.9508 23.947 10.5114 24.0455C10.072 24.1515 9.53788 24.2159 8.90909 24.2386C7.74242 24.2841 6.7197 24.1288 5.84091 23.7727C4.9697 23.4167 4.29167 22.8636 3.80682 22.1136C3.32197 21.3636 3.08333 20.4167 3.09091 19.2727V2.36364ZM22.0682 24.3409C20.303 24.3409 18.7765 23.9659 17.4886 23.2159C16.2083 22.4583 15.2197 21.4053 14.5227 20.0568C13.8258 18.7008 13.4773 17.1288 13.4773 15.3409C13.4773 13.5379 13.8258 11.9621 14.5227 10.6136C15.2197 9.25758 16.2083 8.20454 17.4886 7.45454C18.7765 6.69697 20.303 6.31818 22.0682 6.31818C23.8333 6.31818 25.3561 6.69697 26.6364 7.45454C27.9242 8.20454 28.9167 9.25758 29.6136 10.6136C30.3106 11.9621 30.6591 13.5379 30.6591 15.3409C30.6591 17.1288 30.3106 18.7008 29.6136 20.0568C28.9167 21.4053 27.9242 22.4583 26.6364 23.2159C25.3561 23.9659 23.8333 24.3409 22.0682 24.3409ZM22.0909 20.5909C22.8939 20.5909 23.5644 20.3636 24.1023 19.9091C24.6402 19.447 25.0455 18.8182 25.3182 18.0227C25.5985 17.2273 25.7386 16.322 25.7386 15.3068C25.7386 14.2917 25.5985 13.3864 25.3182 12.5909C25.0455 11.7955 24.6402 11.1667 24.1023 10.7045C23.5644 10.2424 22.8939 10.0114 22.0909 10.0114C21.2803 10.0114 20.5985 10.2424 20.0455 10.7045C19.5 11.1667 19.0871 11.7955 18.8068 12.5909C18.5341 13.3864 18.3977 14.2917 18.3977 15.3068C18.3977 16.322 18.5341 17.2273 18.8068 18.0227C19.0871 18.8182 19.5 19.447 20.0455 19.9091C20.5985 20.3636 21.2803 20.5909 22.0909 20.5909ZM40.2386 24.2841C38.9129 24.2841 37.7121 23.9432 36.6364 23.2614C35.5682 22.572 34.7197 21.5606 34.0909 20.2273C33.4697 18.8864 33.1591 17.2424 33.1591 15.2955C33.1591 13.2955 33.4811 11.6326 34.125 10.3068C34.7689 8.97348 35.625 7.97727 36.6932 7.31818C37.7689 6.65152 38.947 6.31818 40.2273 6.31818C41.2045 6.31818 42.0189 6.48485 42.6705 6.81818C43.3295 7.14394 43.8598 7.55303 44.2614 8.04545C44.6705 8.5303 44.9811 9.00758 45.1932 9.47727H45.3409V0.727272H50.1705V24H45.3977V21.2045H45.1932C44.9659 21.6894 44.6439 22.1705 44.2273 22.6477C43.8182 23.1174 43.2841 23.5076 42.625 23.8182C41.9735 24.1288 41.178 24.2841 40.2386 24.2841ZM41.7727 20.4318C42.553 20.4318 43.2121 20.2197 43.75 19.7955C44.2955 19.3636 44.7121 18.7614 45 17.9886C45.2955 17.2159 45.4432 16.3106 45.4432 15.2727C45.4432 14.2348 45.2992 13.3333 45.0114 12.5682C44.7235 11.803 44.3068 11.2121 43.7614 10.7955C43.2159 10.3788 42.553 10.1705 41.7727 10.1705C40.9773 10.1705 40.3068 10.3864 39.7614 10.8182C39.2159 11.25 38.803 11.8485 38.5227 12.6136C38.2424 13.3788 38.1023 14.2652 38.1023 15.2727C38.1023 16.2879 38.2424 17.1856 38.5227 17.9659C38.8106 18.7386 39.2235 19.3447 39.7614 19.7841C40.3068 20.2159 40.9773 20.4318 41.7727 20.4318ZM62.0369 24.3409C60.2718 24.3409 58.7453 23.9659 57.4574 23.2159C56.1771 22.4583 55.1884 21.4053 54.4915 20.0568C53.7945 18.7008 53.446 17.1288 53.446 15.3409C53.446 13.5379 53.7945 11.9621 54.4915 10.6136C55.1884 9.25758 56.1771 8.20454 57.4574 7.45454C58.7453 6.69697 60.2718 6.31818 62.0369 6.31818C63.8021 6.31818 65.3248 6.69697 66.6051 7.45454C67.893 8.20454 68.8854 9.25758 69.5824 10.6136C70.2794 11.9621 70.6278 13.5379 70.6278 15.3409C70.6278 17.1288 70.2794 18.7008 69.5824 20.0568C68.8854 21.4053 67.893 22.4583 66.6051 23.2159C65.3248 23.9659 63.8021 24.3409 62.0369 24.3409ZM62.0597 20.5909C62.8627 20.5909 63.5331 20.3636 64.071 19.9091C64.6089 19.447 65.0142 18.8182 65.2869 18.0227C65.5672 17.2273 65.7074 16.322 65.7074 15.3068C65.7074 14.2917 65.5672 13.3864 65.2869 12.5909C65.0142 11.7955 64.6089 11.1667 64.071 10.7045C63.5331 10.2424 62.8627 10.0114 62.0597 10.0114C61.2491 10.0114 60.5672 10.2424 60.0142 10.7045C59.4688 11.1667 59.0559 11.7955 58.7756 12.5909C58.5028 13.3864 58.3665 14.2917 58.3665 15.3068C58.3665 16.322 58.5028 17.2273 58.7756 18.0227C59.0559 18.8182 59.4688 19.447 60.0142 19.9091C60.5672 20.3636 61.2491 20.5909 62.0597 20.5909ZM76.9801 0.727272V24H74.2983V0.727272H76.9801ZM81.892 24V6.54545H84.5739V24H81.892ZM83.2557 3.63636C82.733 3.63636 82.2822 3.45833 81.9034 3.10227C81.5322 2.74621 81.3466 2.31818 81.3466 1.81818C81.3466 1.31818 81.5322 0.890151 81.9034 0.53409C82.2822 0.17803 82.733 0 83.2557 0C83.7784 0 84.2254 0.17803 84.5966 0.53409C84.9754 0.890151 85.1648 1.31818 85.1648 1.81818C85.1648 2.31818 84.9754 2.74621 84.5966 3.10227C84.2254 3.45833 83.7784 3.63636 83.2557 3.63636ZM101.849 10.4545L99.4403 11.1364C99.2888 10.7348 99.0653 10.3447 98.7699 9.96591C98.482 9.57955 98.0881 9.26136 97.5881 9.01136C97.0881 8.76136 96.4479 8.63636 95.6676 8.63636C94.5994 8.63636 93.7093 8.88258 92.9972 9.375C92.2926 9.85985 91.9403 10.4773 91.9403 11.2273C91.9403 11.8939 92.1828 12.4205 92.6676 12.8068C93.1525 13.1932 93.91 13.5152 94.9403 13.7727L97.5312 14.4091C99.0919 14.7879 100.255 15.3674 101.02 16.1477C101.785 16.9205 102.168 17.9167 102.168 19.1364C102.168 20.1364 101.88 21.0303 101.304 21.8182C100.736 22.6061 99.9403 23.2273 98.9176 23.6818C97.8949 24.1364 96.7055 24.3636 95.3494 24.3636C93.5691 24.3636 92.0956 23.9773 90.929 23.2045C89.7623 22.4318 89.0237 21.303 88.7131 19.8182L91.2585 19.1818C91.5009 20.1212 91.9593 20.8258 92.6335 21.2955C93.3153 21.7652 94.2055 22 95.304 22C96.554 22 97.5464 21.7348 98.2812 21.2045C99.0237 20.6667 99.3949 20.0227 99.3949 19.2727C99.3949 18.6667 99.1828 18.1591 98.7585 17.75C98.3343 17.3333 97.6828 17.0227 96.804 16.8182L93.8949 16.1364C92.2964 15.7576 91.1222 15.1705 90.3722 14.375C89.6297 13.572 89.2585 12.5682 89.2585 11.3636C89.2585 10.3788 89.535 9.50758 90.0881 8.75C90.6487 7.99242 91.41 7.39773 92.3722 6.96591C93.3419 6.53409 94.4403 6.31818 95.6676 6.31818C97.3949 6.31818 98.7509 6.69697 99.7358 7.45454C100.728 8.21212 101.433 9.21212 101.849 10.4545ZM113.795 6.54545V8.81818H104.75V6.54545H113.795ZM107.386 2.36364H110.068V19C110.068 19.7576 110.178 20.3258 110.398 20.7045C110.625 21.0758 110.913 21.3258 111.261 21.4545C111.617 21.5758 111.992 21.6364 112.386 21.6364C112.682 21.6364 112.924 21.6212 113.114 21.5909C113.303 21.553 113.455 21.5227 113.568 21.5L114.114 23.9091C113.932 23.9773 113.678 24.0455 113.352 24.1136C113.027 24.1894 112.614 24.2273 112.114 24.2273C111.356 24.2273 110.614 24.0644 109.886 23.7386C109.167 23.4129 108.568 22.9167 108.091 22.25C107.621 21.5833 107.386 20.7424 107.386 19.7273V2.36364Z" fill="#333333"/>
</svg>
